<svg width="493.497" height="493.497" xmlns="http://www.w3.org/2000/svg">

 <g>
  <title>background</title>
  <rect fill="none" id="canvas_background" height="602" width="802" y="-1" x="-1"/>
 </g>
 <g>
  <title>Layer 1</title>
  <path fill="#529D94" id="svg_1" d="m444.556,85.218l-395.614,0c-26.988,0 -48.942,21.953 -48.942,48.942l0,225.177c0,26.988 21.954,48.942 48.942,48.942l395.613,0c26.988,0 48.941,-21.954 48.941,-48.942l0,-225.177c0.001,-26.989 -21.952,-48.942 -48.94,-48.942zm16.314,48.942l0,225.177c0,2.574 -0.725,4.924 -1.793,7.09l-115.337,-115.346l117.097,-117.097c0,0.065 0.033,0.112 0.033,0.176zm-428.242,225.176l0,-225.176c0,-0.064 0.033,-0.11 0.033,-0.175l117.097,117.097l-115.345,115.344c-1.06,-2.166 -1.785,-4.515 -1.785,-7.09zm219.156,-62.434c-2.692,2.691 -7.378,2.691 -10.07,0l-179.047,-179.056l368.172,0l-179.055,179.056zm-78.957,-22.75l45.818,45.819c7.512,7.511 17.493,11.645 28.104,11.645c10.61,0 20.592,-4.134 28.104,-11.645l45.82,-45.819l101.49,101.499l-350.836,0l101.5,-101.499z"/>
  <g id="svg_2"/>
  <g id="svg_3"/>
  <g id="svg_4"/>
  <g id="svg_5"/>
  <g id="svg_6"/>
  <g id="svg_7"/>
  <g id="svg_8"/>
  <g id="svg_9"/>
  <g id="svg_10"/>
  <g id="svg_11"/>
  <g id="svg_12"/>
  <g id="svg_13"/>
  <g id="svg_14"/>
  <g id="svg_15"/>
  <g id="svg_16"/>
 </g>
</svg>