<svg width="512" height="512" xmlns="http://www.w3.org/2000/svg">

 <g>
  <title>background</title>
  <rect fill="none" id="canvas_background" height="602" width="802" y="-1" x="-1"/>
 </g>
 <g>
  <title>Layer 1</title>
  <g id="svg_1">
   <path fill="#529d94" id="svg_2" d="m437.02,74.98c-48.353,-48.351 -112.64,-74.98 -181.02,-74.98s-132.667,26.629 -181.02,74.98c-48.351,48.353 -74.98,112.64 -74.98,181.02c0,45.106 11.836,89.232 34.287,128.041l-34.287,127.959l127.959,-34.286c38.81,22.45 82.936,34.286 128.041,34.286c68.38,0 132.667,-26.629 181.02,-74.98c48.351,-48.353 74.98,-112.64 74.98,-181.02s-26.629,-132.667 -74.98,-181.02zm-181.02,407.02c-41.755,0 -82.546,-11.48 -117.965,-33.201l-5.497,-3.37l-90.112,24.146l24.146,-90.113l-3.371,-5.496c-21.72,-35.419 -33.201,-76.21 -33.201,-117.966c0,-124.617 101.383,-226 226,-226s226,101.383 226,226s-101.383,226 -226,226z"/>
   <path fill="#529d94" id="svg_3" d="m256,60c-108.075,0 -196,87.925 -196,196s87.925,196 196,196s196,-87.925 196,-196s-87.925,-196 -196,-196zm0,362c-91.533,0 -166,-74.467 -166,-166s74.467,-166 166,-166s166,74.467 166,166s-74.467,166 -166,166z"/>
   <path fill="#529d94" id="svg_4" d="m150,301l212,0l0,-90l-212,0l0,90zm30,-60l152,0l0,30l-152,0l0,-30z"/>
  </g>
 </g>
</svg>